<?xml version="1.0" encoding="utf-8"?>
<!-- Generator: Adobe Illustrator 22.1.0, SVG Export Plug-In . SVG Version: 6.00 Build 0)  -->
<svg version="1.1"
	 id="svg4309" inkscape:version="0.91 r13725" sodipodi:docname="logo2.svg" xmlns:cc="http://creativecommons.org/ns#" xmlns:dc="http://purl.org/dc/elements/1.1/" xmlns:inkscape="http://www.inkscape.org/namespaces/inkscape" xmlns:rdf="http://www.w3.org/1999/02/22-rdf-syntax-ns#" xmlns:sodipodi="http://sodipodi.sourceforge.net/DTD/sodipodi-0.dtd" xmlns:svg="http://www.w3.org/2000/svg"
	 xmlns="http://www.w3.org/2000/svg" xmlns:xlink="http://www.w3.org/1999/xlink" x="0px" y="0px" viewBox="0 0 19.2 14"
	 style="enable-background:new 0 0 19.2 14;" xml:space="preserve">
<style type="text/css">
	.st0{fill:#809CC9;}
	.st1{fill:#FFFFFF;}
</style>
<g>
	<path id="path4324" inkscape:connector-curvature="0" class="st0" d="M0,0v5.1C2.6,4,6.1,2.9,10.4,1.8c2.8-0.7,5.5-1.3,8.1-1.8H0z
		 M12.4,2.4C10.1,3,8.3,3.6,6.9,4.2c-1.4,0.6-2,1.1-2,1.4C5,5.9,5.6,6.1,6.7,6C7.2,6,8.2,6,9.4,5.8c1.3-0.1,2.9-0.3,4.9-0.5
		c2-0.2,3.6-0.3,4.9-0.4V1.1C16.7,1.5,14.4,1.9,12.4,2.4z M11.3,7.6C10.3,7.7,9,7.8,7.6,8C5.3,8.2,3.4,8.4,1.9,8.5
		C1.2,8.6,0.5,8.6,0,8.7v4.1c3-0.4,5.7-1,8.1-1.6c2.4-0.6,4.2-1.2,5.5-1.7c1.3-0.6,1.9-1,1.8-1.4c-0.1-0.3-0.7-0.5-1.8-0.5
		C13,7.5,12.2,7.6,11.3,7.6z M19.2,9c-2.6,1-5.9,2-9.8,3c-3.6,0.9-6.8,1.6-9.4,2v0h19.2V9z"/>
	<path id="path4326" inkscape:connector-curvature="0" class="st1" d="M0.8,9.8c0.1,0,0.1,0,0.1,0.1C1,9.9,1,9.9,1,10
		c0,0.1,0,0.1-0.1,0.1c0,0-0.1,0.1-0.1,0.1c-0.1,0-0.1,0-0.1-0.1c0,0-0.1-0.1-0.1-0.1c0-0.1,0-0.1,0.1-0.1C0.7,9.8,0.8,9.8,0.8,9.8z
		 M1,11.1c0,0,0.1,0.1,0.1,0.1c0,0.1,0,0.1-0.1,0.1c0,0-0.1,0.1-0.1,0.1c0,0-0.1,0-0.1,0c0,0,0,0-0.1,0c0,0,0,0,0-0.1c0,0,0,0,0-0.1
		c0-0.1,0-0.1,0.1-0.1c0,0,0.1-0.1,0.1-0.1C0.9,11,0.9,11,1,11.1z"/>
	<path id="path4328" inkscape:connector-curvature="0" class="st1" d="M1.5,9.8c0.1,0,0.1,0,0.1,0.1c0,0,0.1,0.1,0.1,0.1
		c0,0.1,0,0.1-0.1,0.1s-0.1,0.1-0.1,0.1c-0.1,0-0.1,0-0.1-0.1c0,0-0.1-0.1-0.1-0.1c0-0.1,0-0.1,0.1-0.1C1.4,9.8,1.4,9.8,1.5,9.8z
		 M1.6,11.1c0,0,0.1,0.1,0.1,0.1c0,0.1,0,0.1-0.1,0.1c0,0-0.1,0.1-0.1,0.1c0,0-0.1,0-0.1,0c0,0,0,0-0.1,0c0,0,0,0,0-0.1
		c0,0,0,0,0-0.1c0-0.1,0-0.1,0.1-0.1c0,0,0.1-0.1,0.1-0.1C1.5,11,1.6,11,1.6,11.1z"/>
</g>
</svg>
